<svg width="62" height="61" viewBox="0 0 62 61" fill="none" xmlns="http://www.w3.org/2000/svg">
<rect x="0.477051" width="61.3734" height="61" rx="15" fill="black"/>
<path d="M40.4444 36.924C40.0965 37.7275 39.6848 38.4672 39.2078 39.1472C38.5576 40.0743 38.0252 40.716 37.6149 41.0724C36.9789 41.6573 36.2974 41.9568 35.5677 41.9739C35.0438 41.9739 34.412 41.8248 33.6766 41.5224C32.9388 41.2214 32.2607 41.0724 31.6408 41.0724C30.9905 41.0724 30.2932 41.2214 29.5472 41.5224C28.8002 41.8248 28.1984 41.9824 27.7383 41.998C27.0385 42.0278 26.341 41.7197 25.6448 41.0724C25.2004 40.6848 24.6446 40.0204 23.9787 39.0791C23.2643 38.0739 22.677 36.9084 22.2169 35.5795C21.7241 34.1442 21.4771 32.7543 21.4771 31.4087C21.4771 29.8673 21.8101 28.5379 22.4772 27.4238C23.0015 26.529 23.699 25.8231 24.572 25.3049C25.445 24.7867 26.3883 24.5227 27.4041 24.5058C27.9599 24.5058 28.6888 24.6777 29.5945 25.0156C30.4977 25.3546 31.0777 25.5265 31.332 25.5265C31.5221 25.5265 32.1663 25.3255 33.2585 24.9247C34.2914 24.5531 35.1631 24.3992 35.8772 24.4598C37.8122 24.6159 39.266 25.3788 40.2328 26.753C38.5022 27.8016 37.6461 29.2703 37.6632 31.1544C37.6788 32.622 38.2112 33.8432 39.2575 34.8129C39.7317 35.2629 40.2612 35.6107 40.8504 35.8578C40.7226 36.2283 40.5878 36.5832 40.4444 36.924V36.924ZM36.0064 19.4601C36.0064 20.6104 35.5861 21.6844 34.7485 22.6785C33.7377 23.8602 32.515 24.5431 31.1891 24.4354C31.1722 24.2974 31.1625 24.1521 31.1625 23.9995C31.1625 22.8953 31.6432 21.7135 32.4968 20.7472C32.923 20.258 33.4651 19.8512 34.1224 19.5267C34.7783 19.2071 35.3987 19.0303 35.9822 19C35.9993 19.1538 36.0064 19.3076 36.0064 19.4601V19.4601Z" fill="white"/>
</svg>
