<svg width="62" height="61" viewBox="0 0 62 61" fill="none" xmlns="http://www.w3.org/2000/svg">
<rect x="0.850342" width="61.1113" height="61" rx="15" fill="#1877F2"/>
<path d="M42.9617 30.5001C42.9617 24.1488 37.8129 19.0001 31.4617 19.0001C25.1104 19.0001 19.9617 24.1488 19.9617 30.5001C19.9617 36.24 24.1671 40.9976 29.6648 41.8604V33.8243H26.7449V30.5001H29.6648V27.9665C29.6648 25.0843 31.3817 23.4922 34.0085 23.4922C35.2667 23.4922 36.5828 23.7169 36.5828 23.7169V26.5469H35.1326C33.7041 26.5469 33.2585 27.4334 33.2585 28.3428V30.5001H36.448L35.9381 33.8243H33.2585V41.8604C38.7563 40.9976 42.9617 36.24 42.9617 30.5001Z" fill="white"/>
</svg>
