<svg width="62" height="61" viewBox="0 0 62 61" fill="none" xmlns="http://www.w3.org/2000/svg">
<rect x="0.0380859" width="61.4389" height="60.8604" rx="15" fill="#24292F"/>
<path d="M30.7576 19C24.2859 19 19.0381 24.2469 19.0381 30.7195C19.0381 35.8976 22.3961 40.2905 27.0526 41.8402C27.6383 41.9487 27.8534 41.586 27.8534 41.2764C27.8534 40.997 27.8425 40.0737 27.8375 39.0945C24.577 39.8034 23.889 37.7117 23.889 37.7117C23.3559 36.3571 22.5878 35.997 22.5878 35.997C21.5245 35.2696 22.668 35.2844 22.668 35.2844C23.8448 35.3672 24.4645 36.4922 24.4645 36.4922C25.5098 38.2839 27.2061 37.7658 27.8749 37.4665C27.9801 36.7089 28.2838 36.192 28.6189 35.8993C26.0159 35.6029 23.2795 34.598 23.2795 30.1075C23.2795 28.828 23.7373 27.7825 24.487 26.9618C24.3653 26.6666 23.9642 25.4746 24.6006 23.8603C24.6006 23.8603 25.5847 23.5453 27.8243 25.0617C28.759 24.8019 29.7616 24.6718 30.7576 24.6673C31.7536 24.6718 32.7569 24.8019 33.6935 25.0617C35.9304 23.5453 36.9132 23.8603 36.9132 23.8603C37.5511 25.4746 37.1498 26.6666 37.0281 26.9618C37.7795 27.7825 38.2342 28.8279 38.2342 30.1075C38.2342 34.6087 35.4926 35.5999 32.8829 35.89C33.3033 36.2537 33.6778 36.9669 33.6778 38.0603C33.6778 39.6283 33.6642 40.8904 33.6642 41.2764C33.6642 41.5883 33.8752 41.9537 34.4693 41.8387C39.1233 40.2872 42.477 35.8959 42.477 30.7195C42.477 24.2469 37.2299 19 30.7576 19Z" fill="white"/>
<path d="M23.4272 35.6942C23.4014 35.7524 23.3097 35.7699 23.2263 35.73C23.1413 35.6917 23.0935 35.6123 23.1211 35.5539C23.1464 35.4939 23.2381 35.4772 23.3229 35.5175C23.4081 35.5556 23.4567 35.6358 23.4272 35.6942M24.0037 36.2086C23.9478 36.2604 23.8385 36.2363 23.7643 36.1544C23.6877 36.0727 23.6733 35.9635 23.73 35.9109C23.7877 35.8591 23.8936 35.8833 23.9705 35.9651C24.0471 36.0477 24.062 36.1563 24.0036 36.2087M24.3992 36.8667C24.3273 36.9166 24.2098 36.8698 24.1373 36.7656C24.0655 36.6614 24.0655 36.5364 24.1389 36.4863C24.2117 36.4362 24.3273 36.4813 24.4008 36.5847C24.4725 36.6907 24.4725 36.8157 24.3991 36.8668M25.0679 37.6289C25.0037 37.6997 24.8669 37.6808 24.7667 37.5841C24.6643 37.4896 24.6358 37.3555 24.7002 37.2846C24.7652 37.2136 24.9028 37.2336 25.0037 37.3295C25.1054 37.4238 25.1365 37.5589 25.068 37.6289M25.9323 37.8863C25.9041 37.978 25.7723 38.0197 25.6395 37.9808C25.507 37.9406 25.4202 37.8331 25.447 37.7403C25.4746 37.6479 25.6069 37.6045 25.7407 37.6462C25.873 37.6862 25.96 37.7929 25.9324 37.8863M26.9161 37.9954C26.9195 38.0921 26.8069 38.1722 26.6675 38.174C26.5273 38.177 26.414 38.0988 26.4125 38.0037C26.4125 37.9061 26.5226 37.8267 26.6626 37.8244C26.802 37.8217 26.9161 37.8993 26.9161 37.9954M27.8825 37.9583C27.8993 38.0526 27.8024 38.1495 27.6641 38.1753C27.528 38.2001 27.4021 38.1419 27.3847 38.0484C27.3678 37.9517 27.4665 37.8549 27.6023 37.8298C27.7409 37.8058 27.8649 37.8625 27.8825 37.9583" fill="white"/>
</svg>
