<svg width="62" height="61" viewBox="0 0 62 61" fill="none" xmlns="http://www.w3.org/2000/svg">
<rect x="0.0380859" width="61" height="61" rx="15" fill="#4285F4"/>
<path fill-rule="evenodd" clip-rule="evenodd" d="M41.5781 30.7614C41.5781 29.9459 41.5049 29.1618 41.369 28.4091H30.5381V32.8575H36.7272C36.4606 34.295 35.6504 35.513 34.4324 36.3284V39.2139H38.149C40.3235 37.2118 41.5781 34.2637 41.5781 30.7614Z" fill="white"/>
<path fill-rule="evenodd" clip-rule="evenodd" d="M30.538 41.9998C33.643 41.9998 36.2462 40.97 38.149 39.2137L34.4324 36.3282C33.4026 37.0182 32.0853 37.4259 30.538 37.4259C27.5428 37.4259 25.0076 35.403 24.1033 32.6848H20.2612V35.6644C22.1535 39.4228 26.0426 41.9998 30.538 41.9998Z" fill="white"/>
<path fill-rule="evenodd" clip-rule="evenodd" d="M24.1033 32.6851C23.8733 31.9951 23.7426 31.258 23.7426 30.5001C23.7426 29.7421 23.8733 29.0051 24.1033 28.3151V25.3355H20.2613C19.4824 26.888 19.0381 28.6444 19.0381 30.5001C19.0381 32.3557 19.4824 34.1121 20.2613 35.6646L24.1033 32.6851Z" fill="white"/>
<path fill-rule="evenodd" clip-rule="evenodd" d="M30.538 23.5739C32.2265 23.5739 33.7424 24.1541 34.9342 25.2936L38.2326 21.9952C36.241 20.1395 33.6378 19 30.538 19C26.0426 19 22.1535 21.577 20.2612 25.3355L24.1033 28.315C25.0076 25.5968 27.5428 23.5739 30.538 23.5739Z" fill="white"/>
</svg>
