<svg width="40" height="40" viewBox="0 0 40 40" fill="none" xmlns="http://www.w3.org/2000/svg">
<path d="M18.6759 2.95439C18.731 1.66082 18.8966 0.697526 19.1448 0.394776C19.3655 0.147071 19.8069 -0.0455882 20.1103 0.0094573C20.4138 0.0645028 20.8276 0.394776 21.0207 0.780094C21.2138 1.16541 21.3517 2.32137 21.3517 3.39475C21.3517 4.44062 21.131 7.74335 20.8828 10.6883C20.4966 15.0644 20.331 16.0552 20 16.0552C19.669 16.0552 19.5034 15.0369 19.0897 10.5507C18.8414 7.52317 18.6483 4.11035 18.6759 2.95439Z" fill="#DC143C"/>
<path d="M6.15172 7.02776C6.12414 6.66996 6.2069 6.28464 6.34483 6.20207C6.48276 6.09198 6.89655 6.00941 7.28276 6.00941C7.66897 6.00941 8.33103 6.28464 8.71724 6.64244C9.13103 6.97271 10.7034 8.81673 12.2483 10.7433C14.2345 13.2479 14.9517 14.3763 14.7586 14.5965C14.5655 14.8717 14.4 14.8717 14.1517 14.6516C13.9586 14.4864 12.2207 13.1103 10.2621 11.569C8.33103 10.0277 6.62069 8.51398 6.48276 8.21123C6.31724 7.90848 6.17931 7.35803 6.15172 7.02776Z" fill="#DC143C"/>
<path d="M26.9241 10.7433C28.469 8.81673 30.0414 6.97271 30.4552 6.61491C30.9241 6.20207 31.4483 6.00941 32 6.06446C32.6897 6.14703 32.8276 6.28464 32.8828 6.89014C32.9379 7.33051 32.8276 7.90848 32.6897 8.21123C32.5241 8.51398 30.8414 10.0277 28.8828 11.569C26.9517 13.1103 25.2138 14.4864 25.0207 14.6516C24.7724 14.8717 24.6069 14.8717 24.4138 14.5965C24.2207 14.3763 24.9379 13.2479 26.9241 10.7433Z" fill="#DC143C"/>
<path d="M0 20.046C0 19.6056 0.248276 19.2479 0.689655 19.0277C1.07586 18.835 2.28966 18.6974 3.44828 18.6974C4.57931 18.7249 7.86207 18.9176 10.7586 19.1653C15.0345 19.5506 16 19.7157 16 20.046C16 20.3763 15.0069 20.5414 10.6207 20.9267C7.66897 21.1744 4.35862 21.3946 3.31034 21.3946C2.23448 21.3946 1.07586 21.257 0.689655 21.0644C0.248276 20.8442 0 20.4864 0 20.046Z" fill="#DC143C"/>
<path d="M24 20.046C24 19.7157 24.9379 19.5506 29.1034 19.1928C31.9172 18.9451 35.2 18.7249 36.4138 18.6974C37.7103 18.6974 38.8966 18.835 39.3103 19.0277C39.7517 19.2479 40 19.6056 40 20.046C40 20.4864 39.7517 20.8442 39.3103 21.0644C38.9241 21.257 37.7379 21.3946 36.6897 21.3946C35.6138 21.3946 32.331 21.1744 29.3793 20.9267C24.9931 20.5414 24 20.3763 24 20.046Z" fill="#DC143C"/>
<path d="M19.0621 30.0918C19.2828 27.0643 19.5586 24.4221 19.6414 24.2295C19.6966 24.0093 19.9172 23.8992 20.0828 23.9542C20.3034 24.0368 20.5793 25.9634 20.8828 29.4313C21.131 32.3762 21.3517 35.6239 21.3517 36.6973C21.3517 37.7431 21.2138 38.9266 21.0207 39.3119C20.8 39.7523 20.4414 40 20 40C19.5586 40 19.2 39.7523 18.9793 39.3119C18.7862 38.9266 18.6207 37.9358 18.6207 37.1101C18.6207 36.2844 18.8138 33.1193 19.0621 30.0918Z" fill="#DC143C"/>
<path d="M6.70345 30.312C6.95172 29.9817 8.71724 28.468 10.6207 26.9542C12.5241 25.4405 14.2345 24.2019 14.4276 24.257C14.6207 24.2845 14.7862 24.3946 14.7862 24.5047C14.7586 24.6423 13.4345 26.4038 11.7793 28.4955C10.0138 30.7248 8.46897 32.4312 7.94483 32.6789C7.17241 33.0643 7.0069 33.0643 6.62069 32.7065C6.37241 32.4863 6.17931 31.9909 6.2069 31.6056C6.2069 31.2202 6.42759 30.6423 6.70345 30.312Z" fill="#DC143C"/>
<path d="M27.1724 28.3579C25.4897 26.2937 24.1379 24.5047 24.1379 24.3671C24.1379 24.257 24.3586 24.1744 24.6069 24.1744C24.8828 24.2019 26.5931 25.3854 28.4138 26.8441C30.2345 28.2753 32 29.7891 32.331 30.2019C32.6897 30.5872 32.9655 31.2478 32.9655 31.6606C32.9655 32.156 32.7724 32.5413 32.4138 32.7065C32.0276 32.8991 31.6414 32.8716 31.0345 32.5689C30.5655 32.3487 28.8276 30.4496 27.1724 28.3579Z" fill="#DC143C"/>
</svg>
