<svg width="20" height="20" viewBox="0 0 20 20" fill="none" xmlns="http://www.w3.org/2000/svg">
<path d="M19.7192 18.3076L16.0114 14.6298C17.4506 12.8353 18.1476 10.5575 17.959 8.26489C17.7705 5.97226 16.7106 3.839 14.9975 2.30378C13.2844 0.768553 11.0481 -0.0519552 8.74862 0.0109678C6.44911 0.0738908 4.26109 1.01546 2.63448 2.64208C1.00786 4.26869 0.066292 6.4567 0.00336896 8.75622C-0.059554 11.0557 0.760954 13.292 2.29618 15.0051C3.83141 16.7182 5.96466 17.7781 8.25729 17.9666C10.5499 18.1552 12.8277 17.4582 14.6222 16.019L18.3 19.6968C18.3929 19.7905 18.5035 19.8648 18.6253 19.9156C18.747 19.9663 18.8777 19.9924 19.0096 19.9924C19.1415 19.9924 19.2722 19.9663 19.3939 19.9156C19.5157 19.8648 19.6263 19.7905 19.7192 19.6968C19.8993 19.5104 20 19.2614 20 19.0022C20 18.743 19.8993 18.494 19.7192 18.3076ZM9.01554 16.019C7.63189 16.019 6.27932 15.6087 5.12886 14.84C3.9784 14.0713 3.08172 12.9787 2.55223 11.7003C2.02273 10.422 1.88419 9.01538 2.15412 7.65832C2.42406 6.30126 3.09035 5.05472 4.06873 4.07633C5.04712 3.09795 6.29366 2.43166 7.65072 2.16172C9.00778 1.89179 10.4144 2.03033 11.6927 2.55983C12.9711 3.08932 14.0637 3.986 14.8324 5.13646C15.6011 6.28692 16.0114 7.63949 16.0114 9.02314C16.0114 10.8786 15.2743 12.658 13.9623 13.9699C12.6504 15.2819 10.871 16.019 9.01554 16.019Z" fill="#F3F5F7"/>
</svg>
